solid OpenSCAD_Model
  facet normal -1 0 0
    outer loop
      vertex -10 10 0
      vertex -10 3 7
      vertex -10 10 20
    endloop
  endfacet
  facet normal -1 0 0
    outer loop
      vertex -10 -10 0
      vertex -10 3 7
      vertex -10 10 0
    endloop
  endfacet
  facet normal -1 -0 0
    outer loop
      vertex -10 3 7
      vertex -10 -10 0
      vertex -10 -10 7
    endloop
  endfacet
  facet normal -1 -0 0
    outer loop
      vertex -10 10 20
      vertex -10 3 7
      vertex -10 3 20
    endloop
  endfacet
  facet normal 0 0 1
    outer loop
      vertex 10 10 20
      vertex 3 3 20
      vertex 10 -10 20
    endloop
  endfacet
  facet normal -0 0 1
    outer loop
      vertex -10 10 20
      vertex 3 3 20
      vertex 10 10 20
    endloop
  endfacet
  facet normal 0 0 1
    outer loop
      vertex 3 3 20
      vertex -10 10 20
      vertex -10 3 20
    endloop
  endfacet
  facet normal 0 0 1
    outer loop
      vertex 10 -10 20
      vertex 3 3 20
      vertex 3 -10 20
    endloop
  endfacet
  facet normal 1 -0 0
    outer loop
      vertex 10 -10 20
      vertex 10 -10 0
      vertex 10 10 20
    endloop
  endfacet
  facet normal 0 1 0
    outer loop
      vertex 10 10 20
      vertex -10 10 0
      vertex -10 10 20
    endloop
  endfacet
  facet normal 0 0 -1
    outer loop
      vertex 10 -10 0
      vertex -10 -10 0
      vertex -10 10 0
    endloop
  endfacet
  facet normal 0 -1 0
    outer loop
      vertex -10 -10 7
      vertex -10 -10 0
      vertex 3 -10 7
    endloop
  endfacet
  facet normal 0 -1 0
    outer loop
      vertex 3 -10 7
      vertex 10 -10 20
      vertex 3 -10 20
    endloop
  endfacet
  facet normal 0 -1 0
    outer loop
      vertex 3 -10 7
      vertex 10 -10 0
      vertex 10 -10 20
    endloop
  endfacet
  facet normal 0 -1 0
    outer loop
      vertex 10 -10 0
      vertex 3 -10 7
      vertex -10 -10 0
    endloop
  endfacet
  facet normal -1 0 0
    outer loop
      vertex 3 -7 7
      vertex 3 -10 7
      vertex 3 -7 17
    endloop
  endfacet
  facet normal -1 0 0
    outer loop
      vertex 3 -7 17
      vertex 3 3 20
      vertex 3 3 17
    endloop
  endfacet
  facet normal -1 0 0
    outer loop
      vertex 3 -7 17
      vertex 3 -10 20
      vertex 3 3 20
    endloop
  endfacet
  facet normal -1 0 0
    outer loop
      vertex 3 -10 20
      vertex 3 -7 17
      vertex 3 -10 7
    endloop
  endfacet
  facet normal 0 0 1
    outer loop
      vertex -7 3 7
      vertex -10 3 7
      vertex -7 -7 7
    endloop
  endfacet
  facet normal -0 0 1
    outer loop
      vertex -7 -7 7
      vertex 3 -10 7
      vertex 3 -7 7
    endloop
  endfacet
  facet normal 0 0 1
    outer loop
      vertex -7 -7 7
      vertex -10 -10 7
      vertex 3 -10 7
    endloop
  endfacet
  facet normal 0 0 1
    outer loop
      vertex -10 -10 7
      vertex -7 -7 7
      vertex -10 3 7
    endloop
  endfacet
  facet normal 0 -1 0
    outer loop
      vertex -10 3 20
      vertex -7 3 17
      vertex 3 3 20
    endloop
  endfacet
  facet normal 0 -1 0
    outer loop
      vertex -10 3 7
      vertex -7 3 17
      vertex -10 3 20
    endloop
  endfacet
  facet normal 0 -1 -0
    outer loop
      vertex -7 3 17
      vertex -10 3 7
      vertex -7 3 7
    endloop
  endfacet
  facet normal 0 -1 -0
    outer loop
      vertex 3 3 20
      vertex -7 3 17
      vertex 3 3 17
    endloop
  endfacet
  facet normal -1 0 0
    outer loop
      vertex -7 -7 7
      vertex -7 3 17
      vertex -7 3 7
    endloop
  endfacet
  facet normal -1 -0 0
    outer loop
      vertex -7 3 17
      vertex -7 -7 7
      vertex -7 -7 17
    endloop
  endfacet
  facet normal -0 0 1
    outer loop
      vertex -7 3 17
      vertex 3 -7 17
      vertex 3 3 17
    endloop
  endfacet
  facet normal 0 0 1
    outer loop
      vertex 3 -7 17
      vertex -7 3 17
      vertex -7 -7 17
    endloop
  endfacet
  facet normal 0 -1 0
    outer loop
      vertex -7 -7 7
      vertex 3 -7 17
      vertex -7 -7 17
    endloop
  endfacet
  facet normal 0 -1 -0
    outer loop
      vertex 3 -7 17
      vertex -7 -7 7
      vertex 3 -7 7
    endloop
  endfacet
  facet normal 0.57735 0.57735 -0.57735
    outer loop
      vertex 10 10 20
      vertex 10 -10 0
      vertex -10 10 0
    endloop
  endfacet
endsolid OpenSCAD_Model
